<svg width="134" height="31" viewBox="0 0 134 31" fill="none" xmlns="http://www.w3.org/2000/svg">
<path d="M50.9432 11.642C50.8847 12.1461 50.8409 12.6358 50.8116 13.1111C50.797 13.5864 50.7897 13.9465 50.7897 14.1914C50.7897 14.4506 50.797 14.7027 50.8116 14.9475C50.8262 15.178 50.8409 15.3724 50.8555 15.5309H50.3511C50.2634 14.6811 50.1391 14.0113 49.9783 13.5216C49.8175 13.0175 49.5397 12.6646 49.1449 12.463C48.7648 12.2469 48.1873 12.1389 47.4124 12.1389H45.5922C45.0951 12.1389 44.715 12.1821 44.4518 12.2685C44.2033 12.3405 44.0352 12.5062 43.9474 12.7654C43.8597 13.0103 43.8159 13.3992 43.8159 13.9321V24.6481C43.8159 25.1667 43.8597 25.5556 43.9474 25.8148C44.0352 26.0741 44.2033 26.2469 44.4518 26.3333C44.715 26.4053 45.0951 26.4414 45.5922 26.4414H47.1931C48.1142 26.4414 48.8087 26.3189 49.2765 26.0741C49.759 25.8292 50.1025 25.4331 50.3072 24.8858C50.5265 24.3241 50.6874 23.5679 50.7897 22.6173H51.2941C51.2502 23.0062 51.2283 23.5247 51.2283 24.1728C51.2283 24.4465 51.2356 24.8426 51.2502 25.3611C51.2795 25.8652 51.3233 26.3909 51.3818 26.9383C50.6362 26.9095 49.7955 26.8951 48.8598 26.8951C47.9241 26.8807 47.0908 26.8735 46.3598 26.8735C45.9212 26.8735 45.3364 26.8735 44.6054 26.8735C43.889 26.8735 43.1214 26.8807 42.3027 26.8951C41.4839 26.8951 40.7164 26.9095 40 26.9383V26.5062C40.4971 26.4774 40.8699 26.4198 41.1184 26.3333C41.3816 26.2469 41.557 26.0741 41.6448 25.8148C41.7325 25.5556 41.7764 25.1667 41.7764 24.6481V13.9321C41.7764 13.3992 41.7325 13.0103 41.6448 12.7654C41.557 12.5062 41.3816 12.3333 41.1184 12.2469C40.8699 12.1461 40.4971 12.0885 40 12.0741V11.642C40.7164 11.6564 41.4839 11.6708 42.3027 11.6852C43.1214 11.6996 43.889 11.7068 44.6054 11.7068C45.3364 11.7068 45.9212 11.7068 46.3598 11.7068C47.0323 11.7068 47.7926 11.7068 48.6405 11.7068C49.5031 11.6924 50.2707 11.6708 50.9432 11.642ZM47.1712 19.0309C47.1712 19.0309 47.1712 19.1029 47.1712 19.2469C47.1712 19.3909 47.1712 19.463 47.1712 19.463H43.158C43.158 19.463 43.158 19.3909 43.158 19.2469C43.158 19.1029 43.158 19.0309 43.158 19.0309H47.1712ZM47.8072 16.179C47.7487 17 47.7195 17.6265 47.7195 18.0586C47.7341 18.4907 47.7414 18.8868 47.7414 19.2469C47.7414 19.607 47.7487 20.0031 47.7633 20.4352C47.7779 20.8673 47.8145 21.4938 47.873 22.3148H47.3686C47.3101 21.8539 47.237 21.4074 47.1493 20.9753C47.0762 20.5288 46.9007 20.1687 46.6229 19.8951C46.3598 19.607 45.9066 19.463 45.2633 19.463V19.0309C45.9066 19.0309 46.3525 18.8652 46.601 18.5339C46.8642 18.2027 47.0323 17.8138 47.1054 17.3673C47.1785 16.9208 47.2443 16.5247 47.3028 16.179H47.8072Z" fill="white"/>
<path d="M62.8815 15.8117V16.2438C62.6037 16.2726 62.3479 16.3951 62.1139 16.6111C61.88 16.8272 61.6607 17.2088 61.456 17.7562L57.8595 27.0463C57.801 27.0463 57.7425 27.0463 57.684 27.0463C57.6255 27.0463 57.5598 27.0463 57.4867 27.0463L53.4515 17.4753C53.2176 16.9136 52.9836 16.5751 52.7497 16.4599C52.5304 16.3302 52.3403 16.2654 52.1795 16.2654V15.8117C52.4719 15.8261 52.7716 15.8477 53.0787 15.8765C53.4003 15.8909 53.7439 15.8981 54.1094 15.8981C54.5626 15.8981 55.0378 15.8909 55.5349 15.8765C56.0466 15.8621 56.5217 15.8405 56.9603 15.8117V16.2654C56.5948 16.2654 56.2659 16.2942 55.9735 16.3519C55.6957 16.3951 55.5129 16.5319 55.4252 16.7623C55.3521 16.9928 55.4252 17.3889 55.6445 17.9506L58.3858 24.6265L58.2542 24.7346L60.7543 18.2747C61.032 17.5545 61.0613 17.0504 60.842 16.7623C60.6373 16.4743 60.1475 16.3014 59.3727 16.2438V15.8117C59.7528 15.8261 60.0671 15.8405 60.3157 15.8549C60.5788 15.8693 60.8785 15.8765 61.2148 15.8765C61.5511 15.8765 61.8508 15.8693 62.1139 15.8549C62.3917 15.8405 62.6476 15.8261 62.8815 15.8117Z" fill="white"/>
<path d="M68.5059 15.5093C69.7925 15.5093 70.794 15.8981 71.5104 16.6759C72.2414 17.4393 72.6069 18.6348 72.6069 20.2623H64.8655L64.8436 19.8519H70.5016C70.5308 19.1461 70.4723 18.4979 70.3261 17.9074C70.1799 17.3025 69.946 16.82 69.6244 16.4599C69.3173 16.0998 68.9153 15.9198 68.4182 15.9198C67.7457 15.9198 67.1463 16.251 66.6199 16.9136C66.1082 17.5761 65.8012 18.6276 65.6989 20.0679L65.7646 20.1543C65.7354 20.3704 65.7135 20.608 65.6989 20.8673C65.6842 21.1265 65.6769 21.3858 65.6769 21.6451C65.6769 22.6245 65.8377 23.4671 66.1594 24.1728C66.481 24.8786 66.8977 25.4187 67.4094 25.7932C67.9357 26.1533 68.4767 26.3333 69.0323 26.3333C69.6902 26.3333 70.2969 26.1749 70.8525 25.858C71.408 25.5412 71.8759 24.9794 72.256 24.1728L72.6946 24.3457C72.5338 24.821 72.2706 25.2819 71.9051 25.7284C71.5396 26.1749 71.0791 26.5422 70.5235 26.8302C69.9679 27.1039 69.3247 27.2407 68.5936 27.2407C67.541 27.2407 66.6345 27.0031 65.8743 26.5278C65.1287 26.0525 64.5512 25.3971 64.1418 24.5617C63.7471 23.7119 63.5497 22.7397 63.5497 21.6451C63.5497 20.3776 63.7544 19.2901 64.1637 18.3827C64.5731 17.4609 65.1506 16.7551 65.8962 16.2654C66.6419 15.7613 67.5118 15.5093 68.5059 15.5093Z" fill="white"/>
<path d="M80.8715 15.5093C81.2663 15.5093 81.6098 15.5885 81.9022 15.7469C82.2093 15.9053 82.4432 16.1142 82.604 16.3735C82.7794 16.6183 82.8672 16.8992 82.8672 17.216C82.8672 17.5761 82.7502 17.893 82.5163 18.1667C82.297 18.4403 81.9973 18.5772 81.6171 18.5772C81.3101 18.5772 81.0396 18.4835 80.8057 18.2963C80.5718 18.0947 80.4548 17.8138 80.4548 17.4537C80.4548 17.18 80.5279 16.9496 80.6741 16.7623C80.835 16.5607 81.0104 16.4023 81.2005 16.287C81.0981 16.143 80.9446 16.071 80.7399 16.071C80.1259 16.071 79.5923 16.3014 79.139 16.7623C78.6858 17.2088 78.3276 17.749 78.0644 18.3827C77.8159 19.0165 77.6916 19.5998 77.6916 20.1327V24.713C77.6916 25.4187 77.8963 25.894 78.3057 26.1389C78.7297 26.3693 79.2998 26.4846 80.0162 26.4846V26.9383C79.68 26.9239 79.2048 26.9095 78.5908 26.8951C77.9767 26.8663 77.3261 26.8519 76.639 26.8519C76.1419 26.8519 75.6448 26.8663 75.1477 26.8951C74.6652 26.9095 74.2997 26.9239 74.0512 26.9383V26.4846C74.6506 26.4846 75.0746 26.3765 75.3232 26.1605C75.5863 25.9444 75.7179 25.534 75.7179 24.929V18.1667C75.7179 17.5185 75.6009 17.0432 75.367 16.7407C75.1331 16.4239 74.6945 16.2654 74.0512 16.2654V15.8117C74.519 15.8549 74.9723 15.8765 75.4109 15.8765C75.8349 15.8765 76.2369 15.8549 76.617 15.8117C77.0118 15.7541 77.37 15.6749 77.6916 15.5741V18.2747C77.8524 17.857 78.0791 17.4393 78.3715 17.0216C78.6785 16.5895 79.044 16.2294 79.468 15.9414C79.892 15.6533 80.3598 15.5093 80.8715 15.5093Z" fill="white"/>
<path d="M86.6563 10V24.929C86.6563 25.534 86.7806 25.9444 87.0291 26.1605C87.2923 26.3765 87.7236 26.4846 88.323 26.4846V26.9383C88.0745 26.9239 87.6943 26.9095 87.1826 26.8951C86.6856 26.8663 86.1812 26.8519 85.6694 26.8519C85.1724 26.8519 84.668 26.8663 84.1563 26.8951C83.6446 26.9095 83.2644 26.9239 83.0159 26.9383V26.4846C83.6153 26.4846 84.0393 26.3765 84.2878 26.1605C84.551 25.9444 84.6826 25.534 84.6826 24.929V12.5926C84.6826 11.9444 84.5656 11.4691 84.3317 11.1667C84.0978 10.8498 83.6592 10.6914 83.0159 10.6914V10.2377C83.4837 10.2809 83.937 10.3025 84.3756 10.3025C84.7995 10.3025 85.2016 10.2809 85.5817 10.2377C85.9765 10.18 86.3347 10.1008 86.6563 10Z" fill="white"/>
<path d="M94.3838 15.5093C95.3195 15.5093 96.1602 15.7109 96.9058 16.1142C97.6514 16.5175 98.2435 17.1512 98.6822 18.0154C99.1354 18.8796 99.362 20.0031 99.362 21.3858C99.362 22.7685 99.1354 23.892 98.6822 24.7562C98.2435 25.606 97.6514 26.2325 96.9058 26.6358C96.1602 27.0391 95.3195 27.2407 94.3838 27.2407C93.4627 27.2407 92.6221 27.0391 91.8618 26.6358C91.1162 26.2325 90.5168 25.606 90.0636 24.7562C89.625 23.892 89.4056 22.7685 89.4056 21.3858C89.4056 20.0031 89.625 18.8796 90.0636 18.0154C90.5168 17.1512 91.1162 16.5175 91.8618 16.1142C92.6221 15.7109 93.4627 15.5093 94.3838 15.5093ZM94.3838 15.9414C93.5505 15.9414 92.8633 16.3663 92.3224 17.216C91.796 18.0658 91.5329 19.4558 91.5329 21.3858C91.5329 23.3158 91.796 24.7058 92.3224 25.5556C92.8633 26.3909 93.5505 26.8086 94.3838 26.8086C95.2172 26.8086 95.897 26.3909 96.4233 25.5556C96.9643 24.7058 97.2348 23.3158 97.2348 21.3858C97.2348 19.4558 96.9643 18.0658 96.4233 17.216C95.897 16.3663 95.2172 15.9414 94.3838 15.9414Z" fill="white"/>
<path d="M110.784 10V24.5833C110.784 25.2315 110.901 25.714 111.135 26.0309C111.384 26.3333 111.822 26.4846 112.451 26.4846V26.9383C111.998 26.8951 111.545 26.8735 111.091 26.8735C110.667 26.8735 110.258 26.8951 109.863 26.9383C109.483 26.9815 109.132 27.0607 108.811 27.1759V12.5926C108.811 11.9444 108.694 11.4691 108.46 11.1667C108.226 10.8498 107.787 10.6914 107.144 10.6914V10.2377C107.612 10.2809 108.065 10.3025 108.504 10.3025C108.928 10.3025 109.33 10.2809 109.71 10.2377C110.105 10.18 110.463 10.1008 110.784 10ZM106.179 15.5093C106.822 15.5093 107.422 15.6605 107.977 15.963C108.548 16.2654 108.928 16.784 109.118 17.5185L108.833 17.7346C108.628 17.1296 108.306 16.6903 107.868 16.4167C107.444 16.143 106.939 16.0062 106.354 16.0062C105.492 16.0062 104.768 16.4455 104.183 17.3241C103.613 18.2027 103.335 19.5566 103.35 21.3858C103.35 22.5525 103.46 23.5247 103.679 24.3025C103.913 25.0658 104.249 25.642 104.688 26.0309C105.141 26.4053 105.689 26.5926 106.333 26.5926C106.947 26.5926 107.502 26.3333 107.999 25.8148C108.496 25.2963 108.796 24.5329 108.898 23.5247L109.162 23.8272C109.045 24.9218 108.686 25.7644 108.087 26.3549C107.502 26.9455 106.705 27.2407 105.697 27.2407C104.79 27.2407 103.993 27.0247 103.306 26.5926C102.634 26.1605 102.115 25.5123 101.749 24.6481C101.398 23.7839 101.223 22.6965 101.223 21.3858C101.223 20.0751 101.449 18.9877 101.903 18.1235C102.37 17.2449 102.977 16.5895 103.723 16.1574C104.483 15.7253 105.302 15.5093 106.179 15.5093Z" fill="white"/>
<path d="M117.365 31C116.59 31 115.859 30.9208 115.172 30.7623C114.485 30.6039 113.929 30.3519 113.505 30.0062C113.096 29.6749 112.891 29.25 112.891 28.7315C112.891 28.2274 113.096 27.7953 113.505 27.4352C113.914 27.0751 114.47 26.8014 115.172 26.6142L115.303 26.9599C114.982 27.0607 114.726 27.2623 114.536 27.5648C114.346 27.8673 114.251 28.2058 114.251 28.5802C114.251 29.2428 114.558 29.7469 115.172 30.0926C115.8 30.4527 116.612 30.6327 117.606 30.6327C118.264 30.6327 118.907 30.5463 119.536 30.3735C120.164 30.215 120.683 29.9414 121.093 29.5525C121.502 29.1636 121.707 28.6523 121.707 28.0185C121.707 27.5432 121.531 27.1543 121.181 26.8519C120.844 26.535 120.172 26.3765 119.163 26.3765H117.54C117.072 26.3765 116.619 26.3405 116.18 26.2685C115.742 26.1965 115.384 26.0453 115.106 25.8148C114.828 25.5844 114.689 25.2315 114.689 24.7562C114.689 24.2665 114.894 23.7984 115.303 23.3519C115.713 22.8909 116.466 22.4228 117.562 21.9475L117.825 22.142C117.328 22.4012 116.897 22.6677 116.531 22.9414C116.166 23.2006 115.983 23.5103 115.983 23.8704C115.983 24.3313 116.334 24.5617 117.036 24.5617H119.777C120.683 24.5617 121.48 24.7634 122.167 25.1667C122.869 25.5556 123.22 26.2037 123.22 27.1111C123.22 27.7881 123.001 28.4218 122.562 29.0123C122.124 29.6029 121.466 30.0782 120.588 30.4383C119.726 30.8128 118.651 31 117.365 31ZM117.474 22.3364C116.392 22.3364 115.479 22.0628 114.733 21.5154C114.002 20.9681 113.637 20.1039 113.637 18.9228C113.637 17.7274 114.002 16.8632 114.733 16.3302C115.479 15.7829 116.392 15.5093 117.474 15.5093C118.556 15.5093 119.463 15.7829 120.194 16.3302C120.939 16.8632 121.312 17.7274 121.312 18.9228C121.312 20.1039 120.939 20.9681 120.194 21.5154C119.463 22.0628 118.556 22.3364 117.474 22.3364ZM117.474 21.9475C118.03 21.9475 118.461 21.7315 118.768 21.2994C119.09 20.8673 119.251 20.0751 119.251 18.9228C119.251 17.7706 119.09 16.9784 118.768 16.5463C118.461 16.1142 118.03 15.8981 117.474 15.8981C116.933 15.8981 116.502 16.1142 116.18 16.5463C115.859 16.9784 115.698 17.7706 115.698 18.9228C115.698 20.0751 115.859 20.8673 116.18 21.2994C116.502 21.7315 116.933 21.9475 117.474 21.9475ZM120.632 17.3025L120.238 17.1512C120.442 16.6615 120.793 16.2294 121.29 15.8549C121.787 15.4805 122.306 15.2932 122.847 15.2932C123.227 15.2932 123.534 15.4012 123.768 15.6173C124.002 15.8189 124.119 16.1286 124.119 16.5463C124.119 16.9928 123.995 17.3097 123.746 17.4969C123.512 17.6698 123.271 17.7562 123.023 17.7562C122.803 17.7562 122.599 17.6842 122.409 17.5401C122.219 17.3817 122.109 17.1368 122.08 16.8056C122.05 16.4743 122.153 16.0494 122.387 15.5309L122.672 15.5957C122.058 15.8261 121.619 16.071 121.356 16.3302C121.093 16.5751 120.852 16.8992 120.632 17.3025Z" fill="white"/>
<path d="M129.811 15.5093C131.098 15.5093 132.099 15.8981 132.816 16.6759C133.547 17.4393 133.912 18.6348 133.912 20.2623H126.171L126.149 19.8519H131.807C131.836 19.1461 131.778 18.4979 131.632 17.9074C131.485 17.3025 131.251 16.82 130.93 16.4599C130.623 16.0998 130.221 15.9198 129.724 15.9198C129.051 15.9198 128.452 16.251 127.925 16.9136C127.414 17.5761 127.107 18.6276 127.004 20.0679L127.07 20.1543C127.041 20.3704 127.019 20.608 127.004 20.8673C126.99 21.1265 126.982 21.3858 126.982 21.6451C126.982 22.6245 127.143 23.4671 127.465 24.1728C127.786 24.8786 128.203 25.4187 128.715 25.7932C129.241 26.1533 129.782 26.3333 130.338 26.3333C130.996 26.3333 131.602 26.1749 132.158 25.858C132.713 25.5412 133.181 24.9794 133.561 24.1728L134 24.3457C133.839 24.821 133.576 25.2819 133.211 25.7284C132.845 26.1749 132.384 26.5422 131.829 26.8302C131.273 27.1039 130.63 27.2407 129.899 27.2407C128.846 27.2407 127.94 27.0031 127.18 26.5278C126.434 26.0525 125.857 25.3971 125.447 24.5617C125.052 23.7119 124.855 22.7397 124.855 21.6451C124.855 20.3776 125.06 19.2901 125.469 18.3827C125.878 17.4609 126.456 16.7551 127.202 16.2654C127.947 15.7613 128.817 15.5093 129.811 15.5093Z" fill="white"/>
<path d="M11.1724 7.56851L8.33498 5.44043L0 11.2927V26.7212H9.75371V16.4355L14.1872 13.2434L18.798 16.4355V20.337H21.9902V15.0168L14.1872 9.16457L6.38424 14.6621V23.5291H3.90148V12.8887L11.1724 7.56851Z" fill="#FEB74D"/>
<path d="M12.5911 26.7214V17.3224L15.7833 19.2732V23.5293L25.1823 23.7067V13.7756L11.1724 3.66724L14.0099 1.36182L28.3744 11.4702V26.7214H12.5911Z" fill="#FEB74D"/>
</svg>
